<svg xmlns="http://www.w3.org/2000/svg" width="1512" height="756" baseProfile="tiny" viewBox="0 0 1134 567"><title>Qt SVG Document</title><desc>MATLAB, The MathWorks, Inc. Version 25.2.0.3177638 R2025b Update 5</desc><g fill="none" fill-rule="evenodd" stroke="#000" stroke-linecap="square" stroke-linejoin="bevel" font-weight="400"><path fill="#fff" stroke="none" d="M0 0h1134.75v567.75H0z" font-family="MS Shell Dlg 2" font-size="8.25"/><path fill="#fff" stroke="none" d="M147.75 42.75v436.5H1026V42.75z" font-family="MS Shell Dlg 2" font-size="8.25"/><text xml:space="preserve" fill="#212121" stroke="none" font-family="Times New Roman" font-size="46" transform="matrix(.75 0 0 .75 465.75 555)">Frequency (rad/s)</text><path stroke="#212121" stroke-linejoin="round" stroke-width=".5" d="M147.75 479.25H1026M147.75 42.75H1026m-807.04 436.5v-8.783m0-418.934V42.75m237.364 436.5v-8.783m0-418.934V42.75m237.366 436.5v-8.783m0-418.934V42.75m237.368 436.5v-8.783m0-418.934V42.75" font-family="Times New Roman" font-size="46"/><text xml:space="preserve" fill="#212121" stroke="none" font-family="Times New Roman" font-size="42" transform="matrix(.75 0 0 .75 199.084 516.15)">1.5</text><text xml:space="preserve" fill="#212121" stroke="none" font-family="Times New Roman" font-size="42" transform="matrix(.75 0 0 .75 448.449 516.15)">2</text><text xml:space="preserve" fill="#212121" stroke="none" font-family="Times New Roman" font-size="42" transform="matrix(.75 0 0 .75 673.814 516.15)">2.5</text><text xml:space="preserve" fill="#212121" stroke="none" font-family="Times New Roman" font-size="42" transform="matrix(.75 0 0 .75 923.179 516.15)">3</text><text xml:space="preserve" fill="#212121" stroke="none" font-family="Times New Roman" font-size="46" transform="matrix(0 -.75 .75 0 72.75 333)">Energy (J)</text><path stroke="#212121" stroke-linejoin="round" stroke-width=".5" d="M147.75 479.25V42.75M1026 479.25V42.75m-878.25 436.5h8.782m860.686 0H1026m-878.25-87.3h8.782m860.686 0H1026m-878.25-87.3h8.782m860.686 0H1026m-878.25-87.3h8.782m860.686 0H1026m-878.25-87.3h8.782m860.686 0H1026m-878.25-87.3h8.782m860.686 0H1026" font-family="Times New Roman" font-size="46"/><text xml:space="preserve" fill="#212121" stroke="none" font-family="Times New Roman" font-size="42" transform="matrix(.75 0 0 .75 123.6 489.75)">0</text><text xml:space="preserve" fill="#212121" stroke="none" font-family="Times New Roman" font-size="42" transform="matrix(.75 0 0 .75 83.85 402.45)">0.01</text><text xml:space="preserve" fill="#212121" stroke="none" font-family="Times New Roman" font-size="42" transform="matrix(.75 0 0 .75 83.85 315.15)">0.02</text><text xml:space="preserve" fill="#212121" stroke="none" font-family="Times New Roman" font-size="42" transform="matrix(.75 0 0 .75 83.85 227.85)">0.03</text><text xml:space="preserve" fill="#212121" stroke="none" font-family="Times New Roman" font-size="42" transform="matrix(.75 0 0 .75 83.85 140.55)">0.04</text><text xml:space="preserve" fill="#212121" stroke="none" font-family="Times New Roman" font-size="42" transform="matrix(.75 0 0 .75 83.85 53.25)">0.05</text><path stroke="#fb8072" stroke-linecap="butt" stroke-linejoin="round" stroke-width="2" d="m178.235 479.25.161-.011.164-.014.254-.018.375-.024.489-.034.63-.044.808-.058 1.038-.073 1.343-.096 1.761-.127 2.353-.172 3.223-.24 4.566-.348.235-.017 6.546-.516 10.785-.892 19.225-1.733 23.232-2.352 24.801-2.85 26.358-3.451 27.921-4.178 29.482-5.053L395 450.845l32.475-7.357 33.812-8.828 34.965-10.534 35.872-12.473 36.478-14.632 36.754-16.977 36.75-19.502 36.567-22.229 36.127-25.075 35.643-28.144 35.024-31.357 33.833-34.186 32.348-36.67 32.017-40.57 31.455-44.439 30.42-47.764 4.237-7.358" font-family="Times New Roman" font-size="42"/></g></svg>